<svg width="120" height="120" viewBox="0 0 120 120" xmlns="http://www.w3.org/2000/svg"><defs><clipPath id="satori_bc-id"><path x="0" y="0" width="120" height="120" d="M13.8,0 h92.4 a13.8,13.8 0 0 1 13.8,13.8 v92.4 a13.8,13.8 0 0 1 -13.8,13.8 h-92.4 a13.8,13.8 0 0 1 -13.8,-13.8 v-92.4 a13.8,13.8 0 0 1 13.8,-13.8"/></clipPath></defs><mask id="satori_om-id"><rect x="4" y="4" width="112" height="112" fill="#fff"/><path width="120" height="120" fill="none" stroke="#000" stroke-width="8" d="M4.042000000000002,4.042000000000002 A13.8,13.8 0 0 1 13.8,0 h92.4 a13.8,13.8 0 0 1 13.8,13.8 v92.4 a13.8,13.8 0 0 1 -13.8,13.8 h-92.4 a13.8,13.8 0 0 1 -13.8,-13.8 v-92.4 A13.8,13.8 0 0 1 4.042000000000002,4.042000000000002"/></mask><path x="0" y="0" width="120" height="120" fill="#0D0E12" d="M13.8,0 h92.4 a13.8,13.8 0 0 1 13.8,13.8 v92.4 a13.8,13.8 0 0 1 -13.8,13.8 h-92.4 a13.8,13.8 0 0 1 -13.8,-13.8 v-92.4 a13.8,13.8 0 0 1 13.8,-13.8"/><path width="120" height="120" clip-path="url(#satori_bc-id)" fill="none" stroke="#00FF66" stroke-width="8" d="M4.042000000000002,4.042000000000002 A13.8,13.8 0 0 1 13.8,0 h92.4 a13.8,13.8 0 0 1 13.8,13.8 v92.4 a13.8,13.8 0 0 1 -13.8,13.8 h-92.4 a13.8,13.8 0 0 1 -13.8,-13.8 v-92.4 A13.8,13.8 0 0 1 4.042000000000002,4.042000000000002"/><mask id="satori_om-id-0"><rect x="21" y="39" width="78" height="28" fill="#fff"/></mask><g  ><path fill="#E8EAF0" d="M30.1 43.8L43.4 57.6L56.8 43.8L63.9 43.8L63.9 62L56.8 62L56.8 52.7L47.7 62L39.2 62L30.1 52.7L30.1 62L23.0 62L23.0 43.8L30.1 43.8ZM87.0 57.3L74.4 57.3L74.4 62L67.3 62L67.3 43.8L87.0 43.8Q89.2 43.8 91.0 44.1Q92.9 44.4 94.3 45.2Q95.7 46.0 96.5 47.3Q97.2 48.7 97.2 50.9Q97.2 53.1 96.5 54.4Q95.7 55.7 94.3 56.3Q92.9 56.9 91.0 57.1Q89.2 57.3 87.0 57.3L87.0 57.3ZM74.4 49.5L74.4 52.3L88.1 52.3Q89.0 52.3 89.6 52.1Q90.1 51.8 90.1 50.9L90.1 50.9Q90.1 50.0 89.6 49.8Q89.0 49.5 88.1 49.5L88.1 49.5L74.4 49.5Z "/></g><mask id="satori_om-id-1"><rect x="35" y="75" width="50" height="6" fill="#fff"/></mask><rect x="35" y="75" width="50" height="6" fill="#00FF66"/></svg>
